<svg width="126" height="195" viewBox="0 0 126 195" fill="none" xmlns="http://www.w3.org/2000/svg">
<path d="M124 93H125V92C125 83.9137 123.396 75.9067 120.28 68.4363C117.163 60.966 112.596 54.1787 106.838 48.4618C101.081 42.745 94.2457 38.2105 86.7241 35.117C85.4851 34.6074 84.2315 34.1386 82.9654 33.7109L124 33.7109H125V32.7109V2V1H124L2 1.00001L1 1.00001V2.00001L1 32.7109V33.7109H2L43.0347 33.7109C41.7685 34.1386 40.5149 34.6074 39.2759 35.117C31.7543 38.2105 24.9194 42.745 19.1619 48.4618C13.4043 54.1787 8.8368 60.966 5.72043 68.4363C2.60407 75.9067 1 83.9137 1 92L1 93H2L124 93Z" fill="white" stroke="white" stroke-width="2"/>
<rect x="1" y="131" width="124" height="63" fill="white" stroke="white" stroke-width="2"/>
</svg>
