<svg width="56" height="75" viewBox="0 0 56 75" fill="none" xmlns="http://www.w3.org/2000/svg">
<path d="M1.75378 0H54.73V4.38555H1.75378V0ZM20.622 16.7011H46.0821V21.0867H20.622V16.7011ZM44.5097 16.7011H49.2268C49.2268 16.7011 49.1663 18.2631 49.1058 18.924C48.0778 38.3285 47.0497 45.5977 44.6911 48.1209C43.3002 49.6829 41.7883 50.1034 39.4298 50.2837C37.1922 50.4639 32.8985 50.3437 28.7862 50.1034C28.6652 48.7818 28.0605 46.9194 27.1533 45.6578C31.689 46.1384 36.1037 46.1384 37.7365 46.1384C39.1274 46.1384 39.9136 46.0183 40.5788 45.3574C42.5745 43.6152 43.6026 36.1057 44.5097 17.4821V16.7011ZM18.1425 3.54449H22.7991C22.3153 20.6061 21.2268 40.9719 3.32613 50.8243C2.60043 49.6829 1.2095 48.2411 0 47.3399C17.1749 38.3285 17.7192 19.1643 18.1425 3.54449Z" fill="black"/>
<path d="M0.665227 69.1475H56V74.0738H0.665227V69.1475Z" fill="black"/>
</svg>
