<svg width="56" height="74" viewBox="0 0 56 74" fill="none" xmlns="http://www.w3.org/2000/svg">
<path d="M23.4521 13.9164C23.4521 11.1368 22.5388 8.84502 20.7123 7.04104C18.8858 5.21866 16.6301 4.30746 13.9452 4.30746C11.242 4.30746 8.9863 5.21866 7.17808 7.04104C5.36986 8.84502 4.46575 11.1368 4.46575 13.9164C4.46575 16.7144 5.379 19.0522 7.20548 20.9298C9.05023 22.8075 11.2968 23.7463 13.9452 23.7463C16.6484 23.7463 18.9041 22.8075 20.7123 20.9298C22.5388 19.0522 23.4521 16.7144 23.4521 13.9164ZM27.9178 13.9164C27.9178 17.8373 26.5571 21.1784 23.8356 23.9396C21.1142 26.6823 17.7991 28.0537 13.8904 28.0537C10.0183 28.0537 6.73059 26.6823 4.0274 23.9396C1.34247 21.1968 0 17.8557 0 13.9164C0 9.97711 1.33333 6.67289 4 4.00373C6.66667 1.33458 9.96347 0 13.8904 0C17.8539 0 21.1781 1.34378 23.863 4.03134C26.5662 6.7005 27.9178 9.99552 27.9178 13.9164Z" fill="black"/>
<path d="M55.2329 27.1978H50.7397V11.4313C50.7397 8.87264 50.2831 6.99502 49.3699 5.79851C48.4749 4.60199 47.0411 4.00373 45.0685 4.00373C42.8219 4.00373 41.105 4.89652 39.9178 6.68209C38.7489 8.46766 38.1644 11.0816 38.1644 14.5239V27.1978H33.6986V0.800746H38.1644V4.69403C38.9498 3.12935 40.0457 1.96045 41.4521 1.18731C42.8584 0.395771 44.5753 0 46.6027 0C49.2877 0 51.3973 0.892786 52.9315 2.67836C54.4658 4.46393 55.2329 6.96741 55.2329 10.1888V27.1978Z" fill="black"/>
<path d="M22.3836 57.4328C22.1461 55.1687 21.3059 53.4107 19.863 52.159C18.4201 50.8888 16.5479 50.2537 14.2466 50.2537C12.0365 50.2537 10.1644 50.9072 8.63014 52.2142C7.09589 53.5027 6.19178 55.2423 5.91781 57.4328H22.3836ZM26.8493 60.6358H5.80822C5.9726 63.4891 6.80365 65.7072 8.30137 67.2903C9.81735 68.855 11.8356 69.6373 14.3562 69.6373C16.274 69.6373 17.8995 69.2599 19.2329 68.5052C20.5845 67.7321 21.653 66.5816 22.4384 65.0537L26.1918 67.0418C24.9863 69.3428 23.379 71.0823 21.3699 72.2604C19.379 73.4201 17.0228 74 14.3014 74C10.3562 74 7.20548 72.7022 4.84931 70.1067C2.51142 67.5112 1.34247 64.0781 1.34247 59.8075C1.34247 55.8313 2.58447 52.5271 5.06849 49.8948C7.55251 47.2624 10.6119 45.9463 14.2466 45.9463C17.9726 45.9463 21.0046 47.152 23.3425 49.5634C25.6804 51.9749 26.8493 55.141 26.8493 59.0619V60.6358Z" fill="black"/>
<path d="M51.5342 57.4328C51.2968 55.1687 50.4566 53.4107 49.0137 52.159C47.5708 50.8888 45.6986 50.2537 43.3973 50.2537C41.1872 50.2537 39.3151 50.9072 37.7808 52.2142C36.2466 53.5027 35.3425 55.2423 35.0685 57.4328H51.5342ZM56 60.6358H34.9589C35.1233 63.4891 35.9543 65.7072 37.4521 67.2903C38.968 68.855 40.9863 69.6373 43.5068 69.6373C45.4247 69.6373 47.0502 69.2599 48.3836 68.5052C49.7352 67.7321 50.8037 66.5816 51.589 65.0537L55.3425 67.0418C54.137 69.3428 52.5297 71.0823 50.5205 72.2604C48.5297 73.4201 46.1735 74 43.4521 74C39.5068 74 36.3562 72.7022 34 70.1067C31.6621 67.5112 30.4931 64.0781 30.4931 59.8075C30.4931 55.8313 31.7352 52.5271 34.2192 49.8948C36.7032 47.2624 39.7626 45.9463 43.3973 45.9463C47.1233 45.9463 50.1552 47.152 52.4931 49.5634C54.831 51.9749 56 55.141 56 59.0619V60.6358ZM50.7671 40.9761H35.6986V37.7455H50.7671V40.9761Z" fill="black"/>
</svg>
